<svg fill="currentColor" width="16" height="16" viewBox="0 -3 16 16" xmlns="http://www.w3.org/2000/svg" preserveAspectRatio="xMinYMin" class="jam jam-unordered-list"><g id="SVGRepo_bgCarrier" stroke-width="0"></g><g id="SVGRepo_tracerCarrier" stroke-linecap="round" stroke-linejoin="round"></g><g id="SVGRepo_iconCarrier"><path fill="currentColor" d="M4 0h9a1 1 0 0 1 0 2H4a1 1 0 1 1 0-2zm0 8h9a1 1 0 0 1 0 2H4a1 1 0 1 1 0-2zm0-4h9a1 1 0 0 1 0 2H4a1 1 0 1 1 0-2zM1 0a1 1 0 1 1 0 2 1 1 0 0 1 0-2zm0 8a1 1 0 1 1 0 2 1 1 0 0 1 0-2zm0-4a1 1 0 1 1 0 2 1 1 0 0 1 0-2z"></path></g></svg>